<svg xmlns="http://www.w3.org/2000/svg" viewBox="0 0 480 600" role="img" aria-hidden="true">
  <rect x="1" y="1" width="478" height="598" rx="24" fill="#FAF6F0" stroke="#E4DCCF" stroke-width="2" />

  <rect x="24" y="24" width="432" height="80" rx="16" fill="#1F6F54" />
  <text x="240" y="75" text-anchor="middle" font-family="sans-serif" font-weight="700" font-size="30" fill="#FAF6F0">
    Harga Main
  </text>

  <!-- price row 1 -->
  <rect x="24" y="128" width="432" height="90" rx="16" fill="#FFFFFF" stroke="#E4DCCF" stroke-width="2" />
  <rect x="48" y="155" width="180" height="16" rx="8" fill="#26221D" opacity="0.7" />
  <rect x="48" y="180" width="120" height="12" rx="6" fill="#26221D" opacity="0.4" />
  <rect x="330" y="158" width="102" height="32" rx="16" fill="#1F6F54" />
  <text x="381" y="180" text-anchor="middle" font-family="sans-serif" font-size="14" fill="#FAF6F0">Rp —</text>

  <!-- price row 2 -->
  <rect x="24" y="238" width="432" height="90" rx="16" fill="#FFFFFF" stroke="#E4DCCF" stroke-width="2" />
  <rect x="48" y="265" width="150" height="16" rx="8" fill="#26221D" opacity="0.7" />
  <rect x="48" y="290" width="130" height="12" rx="6" fill="#26221D" opacity="0.4" />
  <rect x="330" y="268" width="102" height="32" rx="16" fill="#1F6F54" />
  <text x="381" y="290" text-anchor="middle" font-family="sans-serif" font-size="14" fill="#FAF6F0">Rp —</text>

  <!-- price row 3 -->
  <rect x="24" y="348" width="432" height="90" rx="16" fill="#FFFFFF" stroke="#E4DCCF" stroke-width="2" />
  <rect x="48" y="375" width="200" height="16" rx="8" fill="#26221D" opacity="0.7" />
  <rect x="48" y="400" width="110" height="12" rx="6" fill="#26221D" opacity="0.4" />
  <rect x="330" y="378" width="102" height="32" rx="16" fill="#1F6F54" />
  <text x="381" y="400" text-anchor="middle" font-family="sans-serif" font-size="14" fill="#FAF6F0">Rp —</text>

  <text x="240" y="500" text-anchor="middle" font-family="sans-serif" font-size="17" fill="#26221D" opacity="0.5">
    Placeholder infografis harga main
  </text>
  <text x="240" y="526" text-anchor="middle" font-family="sans-serif" font-size="15" fill="#26221D" opacity="0.4">
    (ganti dengan poster asli)
  </text>
</svg>
